<mxfile host="app.diagrams.net" modified="2023-05-09T13:24:26.741Z" agent="Mozilla/5.0 (Windows NT 10.0; Win64; x64; rv:109.0) Gecko/20100101 Firefox/110.0" etag="JsdaQA3EYbiPvP_iXpnS" version="21.1.7" type="github">
  <diagram name="第 1 页" id="P1kkDYjaVA4ungmGTPnx">
    <mxGraphModel dx="658" dy="927" grid="1" gridSize="10" guides="1" tooltips="1" connect="1" arrows="1" fold="1" page="1" pageScale="1" pageWidth="827" pageHeight="1169" math="0" shadow="0">
      <root>
        <mxCell id="0" />
        <mxCell id="1" parent="0" />
        <mxCell id="e3EnaB9bcg-gJYACSiPF-1" value="确定测试目标" style="rounded=0;whiteSpace=wrap;html=1;strokeColor=#028090;fontColor=#E4FDE1;fillColor=#F45B69;" vertex="1" parent="1">
          <mxGeometry x="120" y="300" width="120" height="60" as="geometry" />
        </mxCell>
        <mxCell id="e3EnaB9bcg-gJYACSiPF-12" value="" style="edgeStyle=orthogonalEdgeStyle;rounded=0;orthogonalLoop=1;jettySize=auto;html=1;strokeColor=#028090;fontColor=#E4FDE1;fillColor=#F45B69;" edge="1" parent="1" source="e3EnaB9bcg-gJYACSiPF-2" target="e3EnaB9bcg-gJYACSiPF-5">
          <mxGeometry relative="1" as="geometry" />
        </mxCell>
        <mxCell id="e3EnaB9bcg-gJYACSiPF-2" value="收集输入数据" style="rounded=0;whiteSpace=wrap;html=1;strokeColor=#028090;fontColor=#E4FDE1;fillColor=#F45B69;" vertex="1" parent="1">
          <mxGeometry x="120" y="400" width="120" height="60" as="geometry" />
        </mxCell>
        <mxCell id="e3EnaB9bcg-gJYACSiPF-3" value="迭代测试" style="rounded=0;whiteSpace=wrap;html=1;strokeColor=#028090;fontColor=#E4FDE1;fillColor=#F45B69;" vertex="1" parent="1">
          <mxGeometry x="440" y="500" width="120" height="60" as="geometry" />
        </mxCell>
        <mxCell id="e3EnaB9bcg-gJYACSiPF-18" value="" style="edgeStyle=orthogonalEdgeStyle;rounded=0;orthogonalLoop=1;jettySize=auto;html=1;strokeColor=#028090;fontColor=#E4FDE1;fillColor=#F45B69;" edge="1" parent="1" source="e3EnaB9bcg-gJYACSiPF-4" target="e3EnaB9bcg-gJYACSiPF-3">
          <mxGeometry relative="1" as="geometry" />
        </mxCell>
        <mxCell id="e3EnaB9bcg-gJYACSiPF-4" value="修复漏洞" style="rounded=0;whiteSpace=wrap;html=1;strokeColor=#028090;fontColor=#E4FDE1;fillColor=#F45B69;" vertex="1" parent="1">
          <mxGeometry x="440" y="400" width="120" height="60" as="geometry" />
        </mxCell>
        <mxCell id="e3EnaB9bcg-gJYACSiPF-13" value="" style="edgeStyle=orthogonalEdgeStyle;rounded=0;orthogonalLoop=1;jettySize=auto;html=1;strokeColor=#028090;fontColor=#E4FDE1;fillColor=#F45B69;" edge="1" parent="1" source="e3EnaB9bcg-gJYACSiPF-5" target="e3EnaB9bcg-gJYACSiPF-7">
          <mxGeometry relative="1" as="geometry" />
        </mxCell>
        <mxCell id="e3EnaB9bcg-gJYACSiPF-5" value="输入数据分析" style="rounded=0;whiteSpace=wrap;html=1;strokeColor=#028090;fontColor=#E4FDE1;fillColor=#F45B69;" vertex="1" parent="1">
          <mxGeometry x="120" y="500" width="120" height="60" as="geometry" />
        </mxCell>
        <mxCell id="e3EnaB9bcg-gJYACSiPF-16" value="" style="edgeStyle=orthogonalEdgeStyle;rounded=0;orthogonalLoop=1;jettySize=auto;html=1;strokeColor=#028090;fontColor=#E4FDE1;fillColor=#F45B69;" edge="1" parent="1" source="e3EnaB9bcg-gJYACSiPF-6" target="e3EnaB9bcg-gJYACSiPF-9">
          <mxGeometry relative="1" as="geometry" />
        </mxCell>
        <mxCell id="e3EnaB9bcg-gJYACSiPF-6" value="分析测试结果" style="rounded=0;whiteSpace=wrap;html=1;strokeColor=#028090;fontColor=#E4FDE1;fillColor=#F45B69;" vertex="1" parent="1">
          <mxGeometry x="280" y="300" width="120" height="60" as="geometry" />
        </mxCell>
        <mxCell id="e3EnaB9bcg-gJYACSiPF-14" value="" style="edgeStyle=orthogonalEdgeStyle;rounded=0;orthogonalLoop=1;jettySize=auto;html=1;strokeColor=#028090;fontColor=#E4FDE1;fillColor=#F45B69;" edge="1" parent="1" source="e3EnaB9bcg-gJYACSiPF-7" target="e3EnaB9bcg-gJYACSiPF-8">
          <mxGeometry relative="1" as="geometry" />
        </mxCell>
        <mxCell id="e3EnaB9bcg-gJYACSiPF-7" value="输入数据生成" style="rounded=0;whiteSpace=wrap;html=1;strokeColor=#028090;fontColor=#E4FDE1;fillColor=#F45B69;" vertex="1" parent="1">
          <mxGeometry x="280" y="500" width="120" height="60" as="geometry" />
        </mxCell>
        <mxCell id="e3EnaB9bcg-gJYACSiPF-15" value="" style="edgeStyle=orthogonalEdgeStyle;rounded=0;orthogonalLoop=1;jettySize=auto;html=1;strokeColor=#028090;fontColor=#E4FDE1;fillColor=#F45B69;" edge="1" parent="1" source="e3EnaB9bcg-gJYACSiPF-8" target="e3EnaB9bcg-gJYACSiPF-6">
          <mxGeometry relative="1" as="geometry" />
        </mxCell>
        <mxCell id="e3EnaB9bcg-gJYACSiPF-8" value="注入测试用例" style="rounded=0;whiteSpace=wrap;html=1;strokeColor=#028090;fontColor=#E4FDE1;fillColor=#F45B69;" vertex="1" parent="1">
          <mxGeometry x="280" y="400" width="120" height="60" as="geometry" />
        </mxCell>
        <mxCell id="e3EnaB9bcg-gJYACSiPF-17" value="" style="edgeStyle=orthogonalEdgeStyle;rounded=0;orthogonalLoop=1;jettySize=auto;html=1;strokeColor=#028090;fontColor=#E4FDE1;fillColor=#F45B69;" edge="1" parent="1" source="e3EnaB9bcg-gJYACSiPF-9" target="e3EnaB9bcg-gJYACSiPF-4">
          <mxGeometry relative="1" as="geometry" />
        </mxCell>
        <mxCell id="e3EnaB9bcg-gJYACSiPF-9" value="缺陷报告" style="rounded=0;whiteSpace=wrap;html=1;strokeColor=#028090;fontColor=#E4FDE1;fillColor=#F45B69;" vertex="1" parent="1">
          <mxGeometry x="440" y="300" width="120" height="60" as="geometry" />
        </mxCell>
        <mxCell id="e3EnaB9bcg-gJYACSiPF-11" value="" style="endArrow=classic;html=1;rounded=0;strokeColor=#028090;fontColor=#E4FDE1;fillColor=#F45B69;exitX=0.5;exitY=1;exitDx=0;exitDy=0;entryX=0.5;entryY=0;entryDx=0;entryDy=0;" edge="1" parent="1" source="e3EnaB9bcg-gJYACSiPF-1" target="e3EnaB9bcg-gJYACSiPF-2">
          <mxGeometry width="50" height="50" relative="1" as="geometry">
            <mxPoint x="380" y="590" as="sourcePoint" />
            <mxPoint x="430" y="540" as="targetPoint" />
          </mxGeometry>
        </mxCell>
      </root>
    </mxGraphModel>
  </diagram>
</mxfile>
